PathFileType	4	(X/Y/Z)	C:\Users\Biomechanik\SynologyDrive\AlexP\Athlete_03\Athlete_3_25_03_31\Squat_bw_01\marker_experimental.trc
DataRate	CameraRate	NumFrames	NumMarkers	Units	OrigDataRate	OrigDataStartFrame	OrigNumFrames
200.000000	200.000000	4	55	mm	200.000000	88	708
Frame#	Time	BL			BR			GLAB			RFHD			LFHD			C7			T6			SPINMOL			SPINM2			SPINM3			T12			BELTOL			BELT2			BELT3			SACROL			SACR2			SACR3			LTHOL			LTH2			LTH3			LSHAOL			LSHA2			LSHA3			LHEE			LTOE			LM5			RTHOL			RTH2			RTH3			RSHAOL			RSHA2			RSHA3			RHEE			RTOE			RM5			STRN			XIPH			LACR			LUAOL			LUA2			LUA3			LLAOL			LLA2			LLA3			LWRR			LWRU			RACR			RUAOL			RUA2			RUA3			RLAOL			RLA2			RLA3			RWRR			RWRU			
		X1	Y1	Z1	X2	Y2	Z2	X3	Y3	Z3	X4	Y4	Z4	X5	Y5	Z5	X6	Y6	Z6	X7	Y7	Z7	X8	Y8	Z8	X9	Y9	Z9	X10	Y10	Z10	X11	Y11	Z11	X12	Y12	Z12	X13	Y13	Z13	X14	Y14	Z14	X15	Y15	Z15	X16	Y16	Z16	X17	Y17	Z17	X18	Y18	Z18	X19	Y19	Z19	X20	Y20	Z20	X21	Y21	Z21	X22	Y22	Z22	X23	Y23	Z23	X24	Y24	Z24	X25	Y25	Z25	X26	Y26	Z26	X27	Y27	Z27	X28	Y28	Z28	X29	Y29	Z29	X30	Y30	Z30	X31	Y31	Z31	X32	Y32	Z32	X33	Y33	Z33	X34	Y34	Z34	X35	Y35	Z35	X36	Y36	Z36	X37	Y37	Z37	X38	Y38	Z38	X39	Y39	Z39	X40	Y40	Z40	X41	Y41	Z41	X42	Y42	Z42	X43	Y43	Z43	X44	Y44	Z44	X45	Y45	Z45	X46	Y46	Z46	X47	Y47	Z47	X48	Y48	Z48	X49	Y49	Z49	X50	Y50	Z50	X51	Y51	Z51	X52	Y52	Z52	X53	Y53	Z53	X54	Y54	Z54	X55	Y55	Z55	

89	0.44	960.7000122070312	36.22123718261731	-1933.556030273438	1063.186157226562	32.89545059204101	86.64781951904297	395.5681457519531	1562.352294921875	-1206.818725585938	351.6081848144531	1592.982421875	-1142.25439453125	353.2296752929688	1592.26318359375	-1277.189086914062	153.2063751220703	1428.585815429688	-1210.724487304688	83.23802947998047	1261.529541015625	-1217.335083007812	76.32365417480469	1223.516723632812	-1238.002563476562	70.43039703369141	1216.250610351562	-1188.358276367188	74.48805236816406	1159.487426757812	-1222.307373046875	82.20240783691406	1092.2373046875	-1220.515014648438	62.17864608764648	1063.701416015625	-1237.439575195312	62.85171127319336	1061.479370117188	-1187.034790039062	53.31741714477539	1001.687377929688	-1215.828125	49.64718246459961	941.1081542968751	-1239.932373046875	50.8890380859375	938.0075073242189	-1188.439086914062	37.84096908569336	879.7335205078126	-1217.329223632812	130.4434204101562	677.9433593750001	-1431.613159179688	95.63958740234375	614.4309082031251	-1398.979736328125	134.5193786621094	616.3620605468751	-1430.418823242188	125.0444641113281	333.2937622070314	-1513.423217773438	86.60340881347656	263.8664550781251	-1504.876953125	132.5619354248047	272.599822998047	-1525.003051757812	101.2853317260742	67.26812744140634	-1486.128662109375	311.8932189941406	50.7903709411622	-1541.692138671875	242.6789855957031	27.60851097106944	-1627.293823242188	106.4782943725586	688.3962402343751	-1007.941528320312	153.8922424316406	639.8056640625001	-965.9115600585938	117.1189498901367	628.4670410156251	-997.7009887695312	87.79883575439453	347.9236145019532	-928.804443359375	120.7539215087891	284.6483459472657	-895.83349609375	82.2913818359375	285.7837219238282	-927.3609008789062	89.06834411621094	62.68009185791021	-962.8492431640625	285.804931640625	47.96245956420904	-879.2415161132812	202.0533599853516	38.60543441772466	-802.6864624023438	320.4100646972656	1323.235961914062	-1215.590698242188	330.0591735839844	1177.219116210938	-1214.581298828125	209.1032104492188	1406.43701171875	-1376.54052734375	141.3639984130859	1282.51953125	-1482.601684570312	108.1485214233398	1226.612060546875	-1494.662231445312	150.0082244873047	1232.408813476562	-1523.620483398438	181.8533020019531	1167.950805664062	-1609.191772460938	260.5003662109375	1169.032104492188	-1618.119018554688	228.2712097167969	1207.9501953125	-1616.71044921875	291.3590698242188	1290.728759765625	-1625.326293945312	291.5460205078125	1300.655029296875	-1548.250122070312	212.3003234863281	1398.55029296875	-1058.263549804688	153.1416168212891	1279.474365234375	-952.5743408203124	156.4642486572266	1231.072631835938	-907.1181640624999	122.1734848022461	1221.59814453125	-945.2833862304686	212.4825134277344	1181.76708984375	-807.1112060546874	209.4874572753906	1261.417114257812	-805.1176757812499	249.8261413574219	1231.506225585938	-801.0549316406249	281.2819519042969	1320.79638671875	-803.3167114257811	294.8841552734375	1326.23974609375	-880.1528320312499	
90	0.445	960.6996459960938	36.22138977050793	-1933.5556640625	1063.186401367188	32.89501953124999	86.64760589599609	395.900146484375	1562.172973632812	-1206.925659179688	351.9949951171875	1592.856811523438	-1142.35546875	353.5743408203125	1592.117065429688	-1277.286987304688	153.4020233154297	1428.623901367188	-1210.7373046875	83.31880187988281	1261.620727539062	-1217.304077148438	76.37812042236328	1223.6123046875	-1237.967895507812	70.48524475097656	1216.358642578125	-1188.32080078125	74.49279022216797	1159.582397460938	-1222.267822265625	82.14473724365234	1092.332397460938	-1220.473876953125	62.14065170288086	1063.819702148438	-1237.404541015625	62.7962646484375	1061.588500976562	-1186.998291015625	53.23175811767578	1001.801879882813	-1215.782348632812	49.50960540771484	941.1724853515626	-1239.898803710938	50.74428939819336	938.0764770507814	-1188.40576171875	37.68218994140625	879.8005981445314	-1217.2939453125	130.3110656738281	677.9400634765626	-1431.60205078125	95.51728057861328	614.4121704101564	-1398.983276367188	134.4025421142578	616.3570556640626	-1430.416015625	125.0061874389648	333.2739257812501	-1513.403930664062	86.55875396728516	263.8492736816407	-1504.86865234375	132.5157928466797	272.5935058593751	-1524.99462890625	101.282958984375	67.26644897460946	-1486.130615234375	311.8909912109375	50.79005050659189	-1541.692260742188	242.6796264648438	27.60800170898447	-1627.29345703125	106.3235092163086	688.4126586914064	-1007.856384277344	153.7646179199219	639.8156738281251	-965.8609619140625	116.9735641479492	628.4810791015626	-997.6319580078125	87.68472290039062	347.9035339355469	-928.7868041992188	120.6615295410156	284.6444091796876	-895.816650390625	82.19570922851562	285.7662353515626	-927.3436279296875	89.063232421875	62.67131042480474	-962.8383178710938	285.802001953125	47.96725463867193	-879.2368774414062	202.0514678955078	38.59983825683599	-802.6843872070312	320.555908203125	1323.185302734375	-1215.621948242188	330.10791015625	1177.1650390625	-1214.598266601562	209.2783355712891	1406.439697265625	-1376.5625	141.4919281005859	1282.555053710938	-1482.62451171875	108.2421340942383	1226.6728515625	-1494.698852539062	150.1158294677734	1232.444946289062	-1523.648559570312	181.9374542236328	1167.973388671875	-1609.215454101562	260.5833129882812	1169.0244140625	-1618.142822265625	228.3748779296875	1207.954956054688	-1616.730346679688	291.5002136230469	1290.7041015625	-1625.337158203125	291.700439453125	1300.626098632812	-1548.260009765625	212.5262908935547	1398.583740234375	-1058.287353515625	153.3431091308594	1279.56103515625	-952.5449218749999	156.666259765625	1231.16845703125	-907.0933227539061	122.3545150756836	1221.707641601562	-945.2271118164061	212.7093353271484	1181.862915039062	-807.0838623046874	209.7637176513672	1261.516235351562	-805.1113891601561	250.0880279541016	1231.582885742188	-801.0747070312499	281.5809631347656	1320.859008789062	-803.3568725585936	295.1698303222656	1326.2626953125	-880.1978149414061	
91	0.45	960.6991577148438	36.22193908691418	-1933.555419921875	1063.186645507812	32.89470291137695	86.64739990234375	396.225830078125	1561.997192382812	-1207.031005859375	352.3753356933594	1592.73388671875	-1142.454345703125	353.912841796875	1591.973510742188	-1277.3837890625	153.5927276611328	1428.661499023438	-1210.748413085938	83.39906311035156	1261.70947265625	-1217.273193359375	76.43276214599609	1223.705932617188	-1237.933471679688	70.537841796875	1216.463012695312	-1188.284790039062	74.49906921386719	1159.67431640625	-1222.228393554688	82.08919525146484	1092.425048828125	-1220.434448242188	62.10795211791992	1063.936767578125	-1237.369750976562	62.74257659912109	1061.694946289062	-1186.963500976562	53.14786529541016	1001.913269042969	-1215.73876953125	49.37788391113281	941.2344970703126	-1239.868286132812	50.60388946533203	938.1428833007814	-1188.37548828125	37.52801132202148	879.8645019531251	-1217.262329101562	130.1844177246094	677.9379882812501	-1431.588989257812	95.39910125732422	614.3947143554689	-1398.984497070312	134.2891693115234	616.3526000976564	-1430.4111328125	124.9738006591797	333.252410888672	-1513.383911132812	86.51554870605469	263.8333740234376	-1504.86181640625	132.4707183837891	272.5892944335939	-1524.987426757812	101.2809219360352	67.26513671875009	-1486.132568359375	311.8890380859375	50.78981781005869	-1541.692504882812	242.6802520751953	27.60758590698252	-1627.293334960938	106.1734237670898	688.4282226562501	-1007.775756835938	153.6409454345703	639.8251953125001	-965.8135375976562	116.8323593139648	628.4930419921876	-997.5670776367188	87.57764434814453	347.8851013183594	-928.7669677734375	120.5763778686523	284.6406860351563	-895.7982788085938	82.10638427734375	285.7501525878907	-927.3237915039062	89.05577850341797	62.66658401489263	-962.828369140625	285.7994384765625	47.97167587280279	-879.232421875	202.0499267578125	38.59394836425786	-802.6829223632812	320.69921875	1323.1376953125	-1215.650512695312	330.1564331054688	1177.11474609375	-1214.612060546875	209.4499053955078	1406.44287109375	-1376.5830078125	141.6183624267578	1282.588989257812	-1482.6455078125	108.3284301757812	1226.737915039062	-1494.73828125	150.2205352783203	1232.479614257812	-1523.675537109375	182.0223236083984	1167.993774414062	-1609.235961914062	260.6666564941406	1169.016845703125	-1618.168701171875	228.4785614013672	1207.958129882812	-1616.74755859375	291.640625	1290.678344726562	-1625.345703125	291.8527221679688	1300.596801757812	-1548.267700195312	212.7457733154297	1398.61767578125	-1058.30908203125	153.5401458740234	1279.647583007812	-952.5152587890624	156.8636169433594	1231.265258789062	-907.0632934570311	122.5314559936523	1221.81494140625	-945.1708374023436	212.9312438964844	1181.957885742188	-807.0552368164061	210.0319061279297	1261.614990234375	-805.1034545898436	250.3443908691406	1231.659057617188	-801.0938720703124	281.8727416992188	1320.921752929688	-803.3942871093749	295.4507751464844	1326.285888671875	-880.2396850585936	
92	0.455	960.6986083984375	36.22276687622082	-1933.55517578125	1063.186889648438	32.89453887939452	86.64723205566406	396.5451049804688	1561.825073242188	-1207.134521484375	352.7487182617188	1592.613891601562	-1142.55126953125	354.2448120117188	1591.832885742188	-1277.478881835938	153.7786560058594	1428.69873046875	-1210.75830078125	83.478759765625	1261.796020507812	-1217.24267578125	76.48759460449219	1223.797241210938	-1237.899291992188	70.58821105957031	1216.563598632812	-1188.250366210938	74.50685882568359	1159.763549804688	-1222.189208984375	82.03598785400391	1092.515014648438	-1220.39697265625	62.07967758178711	1064.052124023438	-1237.335205078125	62.69068908691406	1061.798583984375	-1186.930908203125	53.06611251831055	1002.021423339844	-1215.697875976562	49.25177001953125	941.2938232421876	-1239.840942382812	50.46772003173828	938.2063598632814	-1188.348510742188	37.37886810302734	879.9249267578126	-1217.234497070312	130.0631103515625	677.9370727539064	-1431.573608398438	95.28505706787109	614.3786010742189	-1398.982666015625	134.1789245605469	616.3486328125001	-1430.403564453125	124.9464797973633	333.2293090820314	-1513.363159179688	86.47354125976562	263.8186645507814	-1504.856201171875	132.4266357421875	272.5867004394532	-1524.981079101562	101.2791595458984	67.26412963867196	-1486.13427734375	311.8873901367188	50.78964614868173	-1541.692626953125	242.6808013916016	27.60729598999033	-1627.293334960938	106.0278701782227	688.4427490234376	-1007.700439453125	153.5210418701172	639.8342285156251	-965.769287109375	116.6953048706055	628.5026855468751	-997.5069580078125	87.47748565673828	347.8682861328126	-928.7452392578125	120.498405456543	284.6370239257813	-895.7786865234375	82.02345275878906	285.7351684570313	-927.3017578125	89.04643249511719	62.66546630859381	-962.8195190429688	285.7972412109375	47.97558593750006	-879.2281494140625	202.0486907958984	38.58800506591802	-802.6820068359375	320.8399047851562	1323.093139648438	-1215.676391601562	330.2046813964844	1177.06787109375	-1214.622924804688	209.6181945800781	1406.446655273438	-1376.60205078125	141.742919921875	1282.62158203125	-1482.665161132812	108.4074935913086	1226.807373046875	-1494.780517578125	150.3222351074219	1232.512817382812	-1523.70166015625	182.1077117919922	1168.01220703125	-1609.25341796875	260.7502746582031	1169.008544921875	-1618.195678710938	228.5820007324219	1207.959716796875	-1616.762084960938	291.7803344726562	1290.6513671875	-1625.351806640625	292.0029602050781	1300.567016601562	-1548.273193359375	212.9588317871094	1398.652099609375	-1058.328857421875	153.7330932617188	1279.734252929688	-952.4855346679686	157.0559997558594	1231.36328125	-907.0278930664061	122.7041854858398	1221.919921875	-945.1148681640624	213.1480407714844	1182.052368164062	-807.0254516601561	210.2918395996094	1261.713500976562	-805.0938720703124	250.5946960449219	1231.735107421875	-801.1117553710936	282.1571655273438	1320.984741210938	-803.4291381835936	295.7265319824219	1326.309326171875	-880.2785034179686	
